<svg width="32" height="32" viewBox="240 240 350 350" fill="none" xmlns="http://www.w3.org/2000/svg">
  <g transform="translate(-70, -20) scale(1.15)">
    <path
      style="opacity: 0.972"
      fill="#000000"
      d="M 435.5,249.5 C 445.805,248.4 452.638,252.734 456,262.5C 494.451,350.735 533.451,438.735 573,526.5C 576.671,535.347 579.837,544.347 582.5,553.5C 571.064,553.956 559.731,553.456 548.5,552C 520.831,496.322 475.831,470.989 413.5,476C 383.689,479.988 358.522,492.821 338,514.5C 329.211,526.573 321.045,539.073 313.5,552C 301.93,553.623 290.264,553.957 278.5,553C 294.966,498.533 330.3,462.533 384.5,445C 400.849,440.398 417.516,438.232 434.5,438.5C 423.992,412.483 412.659,386.816 400.5,361.5C 391.978,376.878 384.812,392.878 379,409.5C 373.872,422.964 365.372,433.797 353.5,442C 342.833,447.667 332.167,453.333 321.5,459C 301.586,472.583 285.419,489.749 273,510.5C 266.607,523.03 260.607,535.697 255,548.5C 252.92,550.123 250.754,551.623 248.5,553C 238.167,553.667 227.833,553.667 217.5,553C 219.794,545.786 222.294,538.619 225,531.5C 266,439.833 307,348.167 348,256.5C 349.938,253.894 352.438,252.061 355.5,251C 366.161,250.5 376.828,250.333 387.5,250.5C 358.196,318.61 328.196,386.444 297.5,454C 304.526,452.102 311.526,449.769 318.5,447C 321.562,445.939 324.062,444.106 326,441.5C 353.667,379.5 381.333,317.5 409,255.5C 410.543,253.622 412.376,252.122 414.5,251C 421.679,250.829 428.679,250.329 435.5,249.5 Z M 429.5,293.5 C 431.335,294.122 432.502,295.456 433,297.5C 456.338,349.828 479.338,402.161 502,454.5C 493.693,451.73 485.526,448.564 477.5,445C 475.383,443.269 473.883,441.102 473,438.5C 454.941,398.385 437.441,358.052 420.5,317.5C 422.948,309.274 425.948,301.274 429.5,293.5 Z"
    />
    <path
      style="opacity: 0.948"
      fill="#000000"
      d="M 438.5,494.5 C 474.975,491.833 501.142,507.166 517,540.5C 518.168,544.506 519.335,548.506 520.5,552.5C 510.183,553.666 499.849,553.832 489.5,553C 488.5,552.5 487.5,552 486.5,551.5C 477.791,532.926 465.791,516.76 450.5,503C 446.343,500.336 442.343,497.503 438.5,494.5 Z"
    />
  </g>
</svg>